<mxfile host="Electron" modified="2024-02-20T02:30:58.290Z" agent="Mozilla/5.0 (Windows NT 10.0; Win64; x64) AppleWebKit/537.36 (KHTML, like Gecko) draw.io/21.6.8 Chrome/114.0.5735.289 Electron/25.5.0 Safari/537.36" etag="ap377_A6wyS10fvggSj3" version="21.6.8" type="device">
  <diagram name="Page-1" id="vRKHjlIqqOFtLuPMKSvP">
    <mxGraphModel dx="327" dy="1802" grid="1" gridSize="10" guides="1" tooltips="1" connect="1" arrows="1" fold="1" page="1" pageScale="1" pageWidth="850" pageHeight="1100" math="0" shadow="0">
      <root>
        <mxCell id="0" />
        <mxCell id="1" parent="0" />
        <mxCell id="-5Eoh8BJEmmgL38yk0cj-1" value="" style="endArrow=classic;html=1;rounded=0;startArrow=oval;startFill=1;entryX=0.5;entryY=0;entryDx=0;entryDy=0;" edge="1" parent="1" target="-5Eoh8BJEmmgL38yk0cj-3">
          <mxGeometry width="50" height="50" relative="1" as="geometry">
            <mxPoint x="430" y="-1000" as="sourcePoint" />
            <mxPoint x="430" y="-940" as="targetPoint" />
          </mxGeometry>
        </mxCell>
        <mxCell id="-5Eoh8BJEmmgL38yk0cj-2" value="" style="edgeStyle=orthogonalEdgeStyle;rounded=0;orthogonalLoop=1;jettySize=auto;html=1;" edge="1" parent="1" source="-5Eoh8BJEmmgL38yk0cj-3" target="-5Eoh8BJEmmgL38yk0cj-5">
          <mxGeometry relative="1" as="geometry" />
        </mxCell>
        <mxCell id="-5Eoh8BJEmmgL38yk0cj-3" value="Add items to cart" style="rounded=1;whiteSpace=wrap;html=1;fillColor=#d5e8d4;strokeColor=#82b366;" vertex="1" parent="1">
          <mxGeometry x="370" y="-940" width="120" height="60" as="geometry" />
        </mxCell>
        <mxCell id="-5Eoh8BJEmmgL38yk0cj-4" value="" style="edgeStyle=orthogonalEdgeStyle;rounded=0;orthogonalLoop=1;jettySize=auto;html=1;" edge="1" parent="1" source="-5Eoh8BJEmmgL38yk0cj-5" target="-5Eoh8BJEmmgL38yk0cj-7">
          <mxGeometry relative="1" as="geometry" />
        </mxCell>
        <mxCell id="-5Eoh8BJEmmgL38yk0cj-5" value="Click &quot;Add To Cart&quot; button on the product page" style="rounded=1;whiteSpace=wrap;html=1;" vertex="1" parent="1">
          <mxGeometry x="370" y="-840" width="120" height="60" as="geometry" />
        </mxCell>
        <mxCell id="-5Eoh8BJEmmgL38yk0cj-6" value="" style="edgeStyle=orthogonalEdgeStyle;rounded=0;orthogonalLoop=1;jettySize=auto;html=1;" edge="1" parent="1" source="-5Eoh8BJEmmgL38yk0cj-7" target="-5Eoh8BJEmmgL38yk0cj-9">
          <mxGeometry relative="1" as="geometry" />
        </mxCell>
        <mxCell id="-5Eoh8BJEmmgL38yk0cj-7" value="View the cart overview, modify quantities, remove items" style="rounded=1;whiteSpace=wrap;html=1;" vertex="1" parent="1">
          <mxGeometry x="370" y="-730" width="120" height="60" as="geometry" />
        </mxCell>
        <mxCell id="-5Eoh8BJEmmgL38yk0cj-8" value="" style="edgeStyle=orthogonalEdgeStyle;rounded=0;orthogonalLoop=1;jettySize=auto;html=1;" edge="1" parent="1" source="-5Eoh8BJEmmgL38yk0cj-9" target="-5Eoh8BJEmmgL38yk0cj-11">
          <mxGeometry relative="1" as="geometry" />
        </mxCell>
        <mxCell id="-5Eoh8BJEmmgL38yk0cj-9" value="Apply coupon codes or promotions" style="rounded=1;whiteSpace=wrap;html=1;" vertex="1" parent="1">
          <mxGeometry x="370" y="-630" width="120" height="60" as="geometry" />
        </mxCell>
        <mxCell id="-5Eoh8BJEmmgL38yk0cj-11" value="Estimated shipping costs based on delivery address" style="rounded=1;whiteSpace=wrap;html=1;" vertex="1" parent="1">
          <mxGeometry x="370" y="-530" width="120" height="60" as="geometry" />
        </mxCell>
        <mxCell id="-5Eoh8BJEmmgL38yk0cj-12" value="" style="edgeStyle=orthogonalEdgeStyle;rounded=0;orthogonalLoop=1;jettySize=auto;html=1;exitX=0.5;exitY=1;exitDx=0;exitDy=0;" edge="1" parent="1" source="-5Eoh8BJEmmgL38yk0cj-11" target="-5Eoh8BJEmmgL38yk0cj-14">
          <mxGeometry relative="1" as="geometry">
            <mxPoint x="430" y="-370" as="sourcePoint" />
          </mxGeometry>
        </mxCell>
        <mxCell id="-5Eoh8BJEmmgL38yk0cj-14" value="Close event" style="rounded=1;whiteSpace=wrap;html=1;fillColor=#f8cecc;strokeColor=#b85450;" vertex="1" parent="1">
          <mxGeometry x="370" y="-430" width="120" height="60" as="geometry" />
        </mxCell>
        <mxCell id="-5Eoh8BJEmmgL38yk0cj-15" value="" style="endArrow=oval;html=1;rounded=0;exitX=0.5;exitY=1;exitDx=0;exitDy=0;endFill=1;" edge="1" parent="1" source="-5Eoh8BJEmmgL38yk0cj-14">
          <mxGeometry width="50" height="50" relative="1" as="geometry">
            <mxPoint x="440" y="-160" as="sourcePoint" />
            <mxPoint x="430" y="-280" as="targetPoint" />
          </mxGeometry>
        </mxCell>
      </root>
    </mxGraphModel>
  </diagram>
</mxfile>
